<svg width="1400" height="652" viewBox="0 0 1400 652" fill="none" xmlns="http://www.w3.org/2000/svg">
<g clip-path="url(#clip0_45_2880)">
<g opacity="0.131">
<path d="M195.624 76.8787C186.48 76.8787 177.331 77.9201 168.43 79.9738C159.637 82.0025 151.058 85.0251 142.931 88.9574C134.804 92.8898 127.11 97.7415 120.063 103.378C112.928 109.083 106.434 115.611 100.76 122.782L-25.2882 282.057C-33.838 292.861 -40.427 304.917 -44.8724 317.891C-49.2042 330.533 -51.4006 343.736 -51.4006 357.131C-51.4006 370.527 -49.2042 383.73 -44.8726 396.372C-40.427 409.346 -33.838 421.402 -25.2882 432.206L100.759 591.481C106.434 598.651 112.928 605.18 120.063 610.885C127.11 616.521 134.804 621.373 142.931 625.305C151.058 629.238 159.637 632.26 168.43 634.289C177.331 636.343 186.48 637.384 195.624 637.384H522.737C531.88 637.384 541.03 636.343 549.931 634.289C558.724 632.26 567.303 629.238 575.43 625.305C583.557 621.373 591.251 616.521 598.298 610.885C605.433 605.18 611.927 598.651 617.602 591.481L743.649 432.206C752.199 421.402 758.788 409.346 763.233 396.372C767.565 383.73 769.762 370.527 769.762 357.131C769.762 343.736 767.565 330.533 763.233 317.891C758.788 304.917 752.199 292.861 743.649 282.057L617.601 122.782C611.927 115.611 605.433 109.083 598.298 103.378C591.251 97.7415 583.557 92.8898 575.43 88.9574C567.303 85.0251 558.724 82.0025 549.931 79.9738C541.03 77.9201 531.881 76.8787 522.737 76.8787H195.624ZM195.624 75.8789H522.737C560.017 75.8789 595.251 92.9276 618.385 122.161L744.433 281.437C779.537 325.795 779.537 388.468 744.433 432.826L618.386 592.102C595.251 621.335 560.017 638.384 522.737 638.384H195.624C158.344 638.384 123.11 621.335 99.9754 592.102L-26.0722 432.826C-61.1765 388.468 -61.1764 325.795 -26.0722 281.437L99.9755 122.161C123.111 92.9276 158.344 75.8789 195.624 75.8789Z" fill="white"/>
</g>
<g opacity="0.131">
<path d="M858.3 89.5257C849.156 89.5257 840.007 90.5671 831.105 92.6208C822.313 94.6494 813.734 97.6721 805.607 101.604C797.48 105.537 789.786 110.388 782.738 116.025C775.604 121.73 769.11 128.258 763.435 135.429L637.388 294.704C628.838 305.508 622.249 317.564 617.803 330.538C613.472 343.18 611.275 356.383 611.275 369.778C611.275 383.174 613.472 396.377 617.803 409.019C622.249 421.993 628.838 434.049 637.388 444.853L763.435 604.128C769.11 611.298 775.604 617.827 782.738 623.532C789.786 629.168 797.48 634.02 805.607 637.952C813.733 641.885 822.313 644.907 831.105 646.936C840.007 648.99 849.156 650.031 858.3 650.031H1185.41C1194.56 650.031 1203.71 648.99 1212.61 646.936C1221.4 644.907 1229.98 641.885 1238.11 637.952C1246.23 634.02 1253.93 629.168 1260.97 623.532C1268.11 617.827 1274.6 611.298 1280.28 604.128L1406.32 444.853C1414.87 434.049 1421.46 421.993 1425.91 409.019C1430.24 396.377 1432.44 383.174 1432.44 369.778C1432.44 356.383 1430.24 343.18 1425.91 330.538C1421.46 317.564 1414.87 305.508 1406.32 294.704L1280.28 135.429C1274.6 128.258 1268.11 121.73 1260.97 116.025C1253.93 110.388 1246.23 105.537 1238.11 101.604C1229.98 97.6721 1221.4 94.6494 1212.61 92.6208C1203.71 90.5671 1194.56 89.5257 1185.41 89.5257H858.3ZM858.3 88.5259H1185.41C1222.69 88.5259 1257.93 105.575 1281.06 134.808L1407.11 294.084C1442.21 338.442 1442.21 401.115 1407.11 445.473L1281.06 604.748C1257.93 633.982 1222.69 651.031 1185.41 651.031H858.3C821.02 651.031 785.786 633.982 762.651 604.748L636.604 445.473C601.499 401.115 601.499 338.442 636.604 294.084L762.651 134.808C785.786 105.575 821.02 88.5259 858.3 88.5259Z" fill="white"/>
</g>
<g opacity="0.131">
<path d="M1186.26 0.999813C1177.12 0.999813 1167.97 2.04118 1159.07 4.09494C1150.28 6.12355 1141.7 9.14617 1133.57 13.0785C1125.44 17.0109 1117.75 21.8626 1110.7 27.4986C1103.57 33.2041 1097.07 39.7325 1091.4 46.9028L965.352 206.178C956.803 216.982 950.214 229.038 945.768 242.012C941.436 254.654 939.24 267.857 939.24 281.253C939.24 294.648 941.436 307.851 945.768 320.493C950.214 333.467 956.803 345.523 965.352 356.327L1091.4 515.602C1097.07 522.772 1103.57 529.301 1110.7 535.006C1117.75 540.642 1125.44 545.494 1133.57 549.426C1141.7 553.359 1150.28 556.381 1159.07 558.41C1167.97 560.464 1177.12 561.505 1186.26 561.505H1513.38C1522.52 561.505 1531.67 560.464 1540.57 558.41C1549.36 556.381 1557.94 553.359 1566.07 549.426C1574.2 545.494 1581.89 540.642 1588.94 535.006C1596.07 529.301 1602.57 522.772 1608.24 515.602L1734.29 356.327C1742.84 345.523 1749.43 333.467 1753.87 320.493C1758.21 307.851 1760.4 294.648 1760.4 281.253C1760.4 267.857 1758.21 254.654 1753.87 242.012C1749.43 229.038 1742.84 216.982 1734.29 206.178L1608.24 46.9028C1602.57 39.7325 1596.07 33.2041 1588.94 27.4986C1581.89 21.8626 1574.2 17.0109 1566.07 13.0785C1557.94 9.14617 1549.36 6.12355 1540.57 4.09494C1531.67 2.04118 1522.52 0.999813 1513.38 0.999813H1186.26ZM1186.26 0H1513.38C1550.66 0 1585.89 17.0487 1609.03 46.2823L1735.07 205.558C1770.18 249.916 1770.18 312.589 1735.07 356.947L1609.03 516.223C1585.89 545.456 1550.66 562.505 1513.38 562.505H1186.26C1148.98 562.505 1113.75 545.456 1090.62 516.223L964.568 356.947C929.464 312.589 929.464 249.916 964.568 205.558L1090.62 46.2823C1113.75 17.0487 1148.98 0 1186.26 0Z" fill="white"/>
</g>
<g style="mix-blend-mode:luminosity">
<path d="M422.834 635.554H375.621V639.769H422.834V635.554Z" fill="url(#paint0_linear_45_2880)"/>
<path d="M1039.37 443.537L1009.02 407.37L1005.79 410.079L1036.14 446.246L1039.37 443.537Z" fill="url(#paint1_linear_45_2880)"/>
<path d="M1352.7 220.195L1322.35 184.028L1319.12 186.737L1349.47 222.905L1352.7 220.195Z" fill="url(#paint2_linear_45_2880)"/>
<path d="M602.975 105.647L632.059 142.851L635.38 140.254L606.297 103.05L602.975 105.647Z" fill="url(#paint3_linear_45_2880)"/>
</g>
</g>
<defs>
<linearGradient id="paint0_linear_45_2880" x1="420.662" y1="637.662" x2="375.621" y2="637.662" gradientUnits="userSpaceOnUse">
<stop stop-color="#268AFF"/>
<stop offset="1" stop-color="#134580" stop-opacity="0"/>
</linearGradient>
<linearGradient id="paint1_linear_45_2880" x1="1008.8" y1="410.388" x2="1037.76" y2="444.892" gradientUnits="userSpaceOnUse">
<stop stop-color="#FF2626"/>
<stop offset="1" stop-color="#134580" stop-opacity="0"/>
</linearGradient>
<linearGradient id="paint2_linear_45_2880" x1="1322.13" y1="187.046" x2="1351.09" y2="221.55" gradientUnits="userSpaceOnUse">
<stop stop-color="#26FF71"/>
<stop offset="1" stop-color="#134580" stop-opacity="0"/>
</linearGradient>
<linearGradient id="paint3_linear_45_2880" x1="632.382" y1="139.841" x2="604.636" y2="104.348" gradientUnits="userSpaceOnUse">
<stop stop-color="#C526FF"/>
<stop offset="1" stop-color="#134580" stop-opacity="0"/>
</linearGradient>
<clipPath id="clip0_45_2880">
<rect width="1880.95" height="651.03" fill="white" transform="translate(-85.9766)"/>
</clipPath>
</defs>
</svg>
